<svg xmlns="http://www.w3.org/2000/svg" viewBox="0 0 512 512" style="height: 512px; width: 512px;"><path d="M0 0h512v512H0z" fill="#000000" fill-opacity="1"></path><g class="" transform="translate(0,0)" style=""><g><path d="M215.344 22.813L205.03 37.906L276.812 84.281L285.75 71.471C270.13 47.838 241.597 30.501 215.344 22.814Z" class="" fill="#8b572a" fill-opacity="1"></path><path d="M176.874 41.656C148.554 76.996 97.714 146.816 71.156 186.969C133.116 213.333 184.169 256.531 204.376 306.562C209.44 319.102 212.501 332.128 213.156 345.312C250.029 335.562 293.496 308.382 330.406 274.812C360.511 247.432 386.318 215.697 401.812 187.062L176.875 41.655Z" class="change" fill="#fff" fill-opacity="1"></path><path d="M417.531 197.186C400.695 228.224 373.818 260.27 342.814 288.469C302.604 325.039 255.576 354.943 212.344 364.499C211.254 372.777 209.191 381.042 206.001 389.219C197.091 412.051 179.771 433.852 153.345 453.811C218.023 464.766 288.48 440.706 349.189 400.124C413.399 357.201 466.029 296.012 488.469 243.061L417.532 197.186Z" class="change" fill="#fff" fill-opacity="1"></path><path d="M84.814 213.782L16.5 313.72L16.5 457.437L152.375 262.625C134.145 244.112 110.963 227.33 84.812 213.781Z" class="" fill="#8b572a" fill-opacity="1"></path></g></g></svg>