<svg xmlns="http://www.w3.org/2000/svg" viewBox="0 0 512 512" style="height: 512px; width: 512px;"><path d="M0 0h512v512H0z" fill="#000000" fill-opacity="1"></path><g class="" transform="translate(0,0)" style=""><g><path d="M187.8 45.5C187.8 45.5 175.2 52.11 162.5 61.83C156.2 66.69 149.7 72.33 144.5 78.77C139.3 85.21 135 92.66 135 101.5C135 110.1 139.6 117.2 145 122.1C150.3 126.9 156.5 130.3 162.3 133.5C168.1 136.7 173.6 139.8 177.3 142.8C181 145.8 182.7 148.2 183.1 150.9C184.2 157.5 177.9 173 169.9 185.4C161.8 197.8 153.3 207.5 153.3 207.5L166.7 219.5C166.7 219.5 176.1 208.9 185 195.2C193.9 181.5 203.6 165 200.9 148.1C199.5 139.6 194.3 133.3 188.6 128.8C183 124.2 176.7 120.9 171 117.7C165.3 114.6 160.1 111.5 157 108.7C153.9 105.9 153 104.2 153 101.5C153 99.01 154.7 94.78 158.5 90.09C162.3 85.39 167.8 80.45 173.5 76.13C184.8 67.5 196.2 61.42 196.2 61.42Z" class="" fill="#000000" fill-opacity="1"></path><path d="M277.8 77.93C277.8 77.93 265.4 82.59 252.7 89.49C246.4 92.94 239.9 96.91 234.6 101.6C229.2 106.3 224 112 224 120.5C224 128.7 229.7 134.5 235.1 138C240.5 141.4 246.5 143.8 252.4 146.1C258.2 148.3 263.8 150.6 267.5 152.7C271.2 154.9 272.2 156.6 272.2 156.7C272.4 157.3 272 160.4 269.7 164.5C267.5 168.5 263.7 173.3 259.8 177.6C251.9 186.3 243.4 193.2 243.4 193.2L254.6 207.2C254.6 207.2 264 199.7 273.1 189.8C277.6 184.8 282.1 179.3 285.5 173.2C288.8 167.2 291.5 160.4 289.8 152.7C288 144.9 282.1 140.4 276.5 137.1C270.9 133.9 264.7 131.6 258.9 129.3C253.2 127 247.9 124.8 244.9 122.8C242.6 121.4 242.1 120.7 242 120.5C242.2 120.5 243.1 118.1 246.4 115.1C250.1 111.9 255.6 108.4 261.3 105.3C272.6 99.14 284.2 94.77 284.2 94.77Z" class="" fill="#000000" fill-opacity="1"></path><path d="M345.3 90.75C341.6 91.44 337.5 95.12 334.4 101.4C331.3 107.7 329.8 115.9 330.3 121.6C330.4 122.7 334.4 129.8 339.3 134.9C344.3 140 349.2 143.8 349.2 143.8L353.7 147.2L343.1 198.5L357.4 202.9L379.5 160.7C374.4 155.2 369.3 148.8 368.6 139.7C368.1 132.1 369.2 124 372 116.3C365.7 114.6 364.2 111.3 361.9 108.3C359.4 105.3 357 101.9 354.6 98.93C352.2 95.92 349.7 93.31 347.8 91.97C346 90.64 345.5 90.76 345.3 90.76Z" class="" fill="#fff2dc" fill-opacity="1"></path><path d="M401.6 107.4C397.9 108.1 393.8 111.7 390.7 118C387.7 124.3 386.1 132.5 386.6 138.3C386.7 139.4 390.7 146.5 395.6 151.6C400.6 156.7 405.5 160.5 405.5 160.5L410 163.9L399.3 215.3L413.6 219.8L439.4 170.5L443.1 169.5C443.1 169.5 452.5 166.7 462.3 162.1C467.2 159.8 472.1 157 475.6 154.2C479.2 151.3 481.1 148.6 481.4 147.3L481.4 147.2C482.9 142 481.8 133.7 478.4 126.6C474.9 119.6 469.4 114.3 464.6 112.8C464.4 112.7 463.9 112.6 461.8 113.8C459.7 115 456.8 117.4 453.8 120.2C450.8 123.1 447.7 126.2 444 128.9C440.4 131.6 435.3 134.7 428.7 133C422.1 131.4 420.6 127.9 418.2 124.9C415.7 121.9 413.3 118.5 410.9 115.5C408.5 112.5 406 109.9 404.1 108.6C402.3 107.2 401.8 107.4 401.6 107.4Z" class="selected" fill="#fff2dc" fill-opacity="1"></path><path d="M92.36 119.9C92.36 119.9 79.86 125.3 67.15 133.4C60.79 137.5 54.32 142.1 49.02 147.6C43.72 153.1 38.98 159.6 38.98 168.1C38.98 176.3 44.2 182.8 49.57 186.8C54.95 190.8 61.05 193.6 66.87 196.3C72.69 198.9 78.22 201.5 81.93 204C85.63 206.5 86.89 208.4 87.14 209.7C87.49 211.5 86.84 215.7 84.45 220.7C82.07 225.6 78.29 231.3 74.3 236.4C66.33 246.6 57.8 254.6 57.8 254.6L70.14 267.8C70.14 267.8 79.51 259 88.49 247.4C92.98 241.7 97.43 235.2 100.7 228.4C104 221.6 106.4 214.2 104.8 206.3C103.3 198.3 97.62 192.9 91.99 189.1C86.35 185.3 80.11 182.5 74.38 179.9C68.65 177.3 63.43 174.7 60.36 172.4C57.3 170.1 56.97 169.2 56.97 168.1C56.97 167.2 58.23 164 61.93 160.1C65.63 156.3 71.16 152.2 76.8 148.6C88.09 141.4 99.59 136.3 99.59 136.3Z" class="" fill="#000000" fill-opacity="1"></path><path d="M330.9 213.5C328.6 215.1 323.2 219 315.7 224.7C327.7 227.2 340 230.5 352.4 234.5C354 233.2 355.4 232.1 356.9 230.9C356.4 226.7 355.9 223.4 355.6 221.2Z" class="" fill="#fff" fill-opacity="1"></path><path d="M387.3 230.3C382.8 233.5 367.7 244.5 348.1 261.6C325.3 281.4 299.9 307.2 289.8 327.7C282.2 343.1 273.5 361.9 269.2 379.7C264.9 397.5 265.1 413.4 272.5 424.5C276.7 430.8 283.2 432.8 292.9 432.6C302.6 432.5 314.2 429.4 323.8 426.4C357.5 415.4 392.8 391.3 408.8 356.6C416 341 417.4 309.1 416 282.1C414.9 260.1 412.7 244.4 411.8 238.1Z" class="" fill="#fff" fill-opacity="1"></path><path d="M275.4 238.4C274.3 238.4 273.1 238.4 272 238.5C233.7 240.5 189.9 248 152.3 263.5C114.6 278.9 83.35 302 68.18 334.7C62.69 346.5 63.03 362.4 68.02 375.8C73.01 389.2 82.3 399.1 92.08 401.7C135 412.9 193.3 417.7 250.4 418.7C246.9 405.5 248.1 391.1 251.3 377.3C220.2 389.1 174.8 391.9 117.5 373.8L109 371.1L111.6 362.6C119 337.6 141.6 304.9 178.4 288L186 304.4C159.1 316.7 140.4 340.6 132.1 359.3C191.6 376 234.8 367.3 258.4 354C263 341.5 268.6 329.8 273.6 319.7C286.1 294.5 312.3 268.9 335.7 248.6C315 242.6 295.1 238.6 278.7 238.4Z" class="" fill="#fff" fill-opacity="1"></path><path d="M434.3 287.7C435.4 314.1 434.6 343.6 425.2 364.2C415.8 384.5 401.3 401.2 384.4 414.5C392.3 413.8 399.8 413.1 406.5 412.3C418.9 411 429.1 409.5 436.3 408.1C439.9 407.3 442.8 406.6 444.7 406.1C445.4 405.8 445.8 405.6 446.1 405.4C458.2 390.3 469.9 376 477.7 361.2C485 347 489 332.6 487.1 315.2C483 312.8 463.1 301.5 434.3 287.7Z" class="" fill="#fff" fill-opacity="1"></path><path d="M53.14 386.9C47.74 389.3 43.02 391.7 39.1 394.2C28.21 401.1 24.44 407.2 24.44 411.5C24.44 415.8 28.21 421.9 39.1 428.8C49.99 435.7 66.89 442.4 88.05 448.1C130.4 459.3 189.9 466.5 255.5 466.5C321.1 466.5 380.6 459.3 422.9 448.1C444.1 442.4 460.9 435.7 471.8 428.8C482.7 421.9 486.5 415.8 486.5 411.5C486.5 407.8 483.6 402.7 475.8 396.9C470.3 404.1 464.6 411.1 459 418.1L458.7 418.6L458.2 419C455 422 452.9 422.3 450 423.2C447.2 424.1 443.8 424.9 439.8 425.7C431.8 427.3 421.2 428.8 408.5 430.2C392.4 432 372.9 433.6 351.4 434.8C344 438.3 336.6 441.2 329.3 443.6L329.2 443.6C319.1 446.8 306.2 450.4 293.2 450.6C281.2 450.9 267.8 447.5 259.3 436.9C198.7 436.3 135.5 431.6 87.54 419.1C71.62 414.9 59.99 402.1 53.14 386.9Z" class="" fill="#000000" fill-opacity="1"></path></g></g></svg>