<svg xmlns="http://www.w3.org/2000/svg" viewBox="0 0 512 512" style="height: 512px; width: 512px;"><path d="M0 0h512v512H0z" fill="#000000" fill-opacity="1"></path><g class="" transform="translate(0,0)" style=""><g><path d="M294.818 43.27C293.861 43.273 292.901 43.284 291.938 43.305C245.788 44.298 195.378 66.992 163.324 98.125C121.359 138.883 71.398 206.288 44.428 271.172C30.942 303.614 23.258 335.392 24.498 362.477C25.738 389.562 35.221 411.665 57.038 428.023C72.748 439.803 85.676 439.009 101.852 430.743C118.027 422.475 135.919 405.419 154.285 385.338C191.017 345.176 229.051 292.886 275.293 277.406C337.087 256.721 373.571 242.976 396.219 230.621C418.865 218.268 427.611 208.155 436.959 191.541C444.261 178.567 445.324 165.474 441.989 151.659C438.655 137.845 430.601 123.492 419.539 110.039C397.412 83.136 363.286 60.093 335.833 50.036C323.083 45.366 309.181 43.246 294.817 43.272Z" class="" fill="#fff2dc" fill-opacity="1"></path><path d="M298.236 67.53C319.446 67.427 340.381 71.868 356.729 84.207C404.283 120.102 443.183 143.167 411.106 196.087C379.03 249.01 234.102 254.257 193.546 216.147C191.883 205.551 180.933 124.697 203.722 94.494C216.242 84.487 257.742 67.724 298.235 67.529Z" class="" fill="#fff" fill-opacity="1"></path><path d="M178.366 111.19C177.308 113.18 171.28 194.303 167.963 210.127C148.566 219.855 96.183 231.201 94.043 217.104C97.661 200.45 131.143 145.111 178.367 111.189Z" class="" fill="#fff" fill-opacity="1"></path><path d="M456.461 137.438C457.657 140.732 458.674 144.065 459.487 147.434C463.687 164.834 462.223 183.35 452.647 200.367C442.307 218.741 429.64 232.895 404.839 246.424C380.039 259.954 343.039 273.709 281.007 294.474C244.129 306.82 205.177 356.366 167.569 397.486C148.765 418.046 130.152 436.494 110.044 446.771C104.149 449.785 97.994 451.975 91.722 453.189C94.752 454.919 97.865 456.527 100.887 457.917C109.003 461.651 117.434 463.585 118.084 463.603C132.121 462.953 147.164 455.277 162.9 442.579C178.72 429.815 194.963 412.295 211.393 393.903C244.253 357.119 277.137 316.38 315.837 303.425C377.654 282.731 414.507 269.147 437.302 256.882C460.096 244.618 468.702 234.647 477.346 217.854C487.079 198.942 487.59 185.598 481.852 171.574C477.522 160.991 468.884 149.844 456.462 137.439Z" class="" fill="#fff2dc" fill-opacity="1"></path><path d="M141.915 232.904C175.875 232.714 211.005 249.654 246.603 268.996C175.345 306.314 104.713 449.322 59.47 402.986C41.264 382.881 40.037 283.216 89.617 249.422C106.66 237.806 124.127 233.004 141.914 232.904Z" class="" fill="#fff" fill-opacity="1"></path><path d="M105.452 306.117C100.016 306.22 94.532 307.887 90.712 310.904C78.372 320.657 68.992 345.049 79.506 356.748C89.563 367.938 114.966 362.564 124.234 350.736C132.496 340.192 129.924 319.648 119.914 310.716C116.282 307.476 110.891 306.016 105.454 306.116Z" class="selected" fill="#fff2dc" fill-opacity="1"></path></g></g></svg>