<svg xmlns="http://www.w3.org/2000/svg" viewBox="0 0 512 512" style="height: 512px; width: 512px;"><path d="M0 0h512v512H0z" fill="#ffffff" fill-opacity="1"></path><g class="" transform="translate(0,0)" style=""><g><path d="M117.4 17.8L22.5 114.1C38.7 133.3 66.2 149.6 88.7 154.3C104 157.3 119.3 156.1 132 149.6C161.3 178.5 190.2 207.9 219 237.5L241.2 215.2L153.6 127.7C159.9 115.1 162.1 99.75 158.1 84.9C149.9 54.4 136.9 37.32 117.4 17.8Z" class="" fill="#ffffff" fill-opacity="1"></path><path d="M242.5 27.3C233.2 27.4 224 28.2 215 30C332.1 100.5 419.6 194.7 488.6 303.7C491.4 244.5 467.4 183.5 429.3 134C414.3 139.5 395.8 134.6 382.9 121.8C370.1 108.9 365.2 90.4 370.7 75.4C331.4 45.5 286.4 27.1 242.5 27.3Z" class="" fill="#000000" fill-opacity="1"></path><path d="M128.4 60.2C134.1 69.7 137.9 79.4 139.7 88.5C143 105 139.9 118.6 131.1 127.4C122.4 136.1 108.8 139.2 92.3 136C83.2 134.2 73.5 130.4 63.9 124.7Z" class="" fill="#ffffff" fill-opacity="1"></path><path d="M391.9 76.1C384.7 83.14 385.3 97.7 396.2 108.5C407 119.4 421.5 119.9 428.7 112.8C435.8 105.6 435.6 90.8 424.4 80.3C415.7 72.17 401.3 66.83 391.9 76.1Z" class="" fill="#000000" fill-opacity="1"></path><path d="M335.6 147.3L22.3 460.7C26.5 472.2 33 481.1 46.8 485.6L360.3 172C352.8 163.3 344.5 155.1 335.6 147.3Z" class="" fill="#000000" fill-opacity="1"></path><path d="M292.4 266.4L269.3 289.5C301.8 323.5 334.3 357.8 366.7 392C351.1 406.5 335 419.2 320.2 428.1C376.1 484.1 445.1 506.2 482.2 482.6C505 445.3 483.3 376.1 427.7 320.5C418.1 335.5 405.7 351.2 392.2 366.2Z" class="selected" fill="#ffffff" fill-opacity="1"></path></g></g></svg>