<svg xmlns="http://www.w3.org/2000/svg" viewBox="0 0 512 512" style="height: 512px; width: 512px;"><path d="M0 0h512v512H0z" fill="#000" fill-opacity="1"></path><g class="" transform="translate(0,0)" style=""><g><path d="M203.1 16.79L187.2 175.8C186 186.7 189.7 191.5 197 195.7C204.3 199.8 216 201.5 227.6 200.3C239.2 199 250.6 194.8 257.1 189.6C263.6 184.3 265.6 180.4 262.9 173.3Z" class="" fill="#fffffe" fill-opacity="1"></path><path d="M329.2 68.54C388 122.1 422.4 190.3 434.9 250.6C441.6 282.9 442.1 312.9 436.2 337.7C430.4 362.4 417.8 382.4 397.9 391.7C386.1 397.1 366.8 399.1 339.7 400.4C312.6 401.6 278.7 401.2 242.6 398.7C176.4 394.1 102.8 382.5 49.7 359.3C50.82 367.8 52.49 376.4 54.73 385.2C56.1 390.5 61.78 397.2 72.72 403.6C83.66 410 99.25 416 117.7 421.1C154.7 431.2 203.4 437.9 252 440.6C300.7 443.3 349.5 442 386.8 436.9C405.5 434.3 421.3 430.7 432.4 426.4C443.5 422.1 448.9 416.9 449.8 414.4C489.9 304.1 474.9 216.4 443.1 156.7C427.1 126.8 406.9 103.9 387.3 88.89C367.9 76.29 351.2 66.1 329.2 68.54Z" class="" fill="#000000" fill-opacity="1"></path><path d="M306.2 72.41C289 76.16 270 82.1 250.4 90.1L279.7 166.9C285 181.1 278.7 195.3 268.3 203.6C258 211.9 243.9 216.6 229.5 218.2C215.1 219.7 200.2 218.2 188.1 211.3C176 204.5 167.5 190.8 169.2 174L173.5 131C161 139.5 148.9 148.7 137.4 158.6C124.5 169.7 112.5 181.8 101.7 194.6L172.5 264.1C180.7 272.8 171.2 298.2 166.2 305.4C158.8 315.5 148.2 323.4 136.3 327.9C124.5 332.4 111.1 333.6 98.75 329.3C86.27 325.1 75.14 315.2 68.56 300L68.35 299.5L59 267.8C51.22 289.9 47.19 313.6 48 338.9C97.45 362.9 174.9 376 243.9 380.9C279.3 383.3 312.6 383.7 338.9 382.5C365.2 381.3 385.5 377.7 390.3 375.4C403.8 369.2 413.7 354.9 418.7 333.6C423.7 312.3 423.5 284.6 417.3 254.4C410.2 220.1 395.2 182.6 372.2 147L355.8 327.9L355.7 328.3C354.4 335.5 350.5 341.8 345.3 345.9C340.1 350.1 333.8 352.2 327.3 353.1C314.3 354.9 300 351.9 286.7 346.3C273.4 340.7 261.1 332.4 253.1 321.6C245.1 310.8 242.2 295.7 250.2 282.7L250.6 282L370.5 144.6C353.5 118.8 332.1 94.03 306.2 72.41Z" class="selected" fill="#fff" fill-opacity="1"></path><path d="M48.16 167.2L85.25 293.1C90.12 304.2 96.85 309.7 104.4 312.3C112.2 314.9 121.3 314.3 129.9 311C138.6 307.8 146.5 301.8 151.6 294.8C156.1 288.5 158.2 281.7 157.5 274.6Z" class="" fill="#fffffe" fill-opacity="1"></path><path d="M349.6 195.8L265.4 292.5C261.5 299.1 262.6 304.1 267.6 310.9C272.7 317.9 282.7 325.1 293.7 329.7C304.6 334.3 316.6 336.4 324.9 335.3C329 334.7 332.1 333.4 334.1 331.8C336.1 330.3 337.3 328.4 338 325.1Z" class="" fill="#fffffe" fill-opacity="1"></path><path d="M50.38 409.8C45.42 410.7 42.75 412.7 40.88 415.2C38.71 418.2 37.59 422.7 38.09 428C39.1 438.7 46.96 451.3 58.34 455.9C186.3 507.7 337.6 498.5 455.9 483.4C469.4 481.8 477.9 427.8 454.9 434.7C450.1 438.4 445.6 440.7 438.9 443.3C425.7 448.4 408.8 452.1 389.3 454.8C350.3 460.2 300.7 461.4 251.1 458.6C201.4 455.9 151.9 449.2 112.9 438.5C93.51 433.2 76.69 426.9 63.59 419.2C58.69 416.3 54.22 413.2 50.38 409.8Z" class="" fill="#000000" fill-opacity="1"></path></g></g></svg>