<svg xmlns="http://www.w3.org/2000/svg" viewBox="0 0 512 512" style="height: 512px; width: 512px;"><path d="M0 0h512v512H0z" fill="#000000" fill-opacity="1"></path><g class="" transform="translate(0,0)" style=""><g transform="translate(0, 0) scale(1, 1) rotate(-135, 256, 256) skewX(0) skewY(0)"><path d="M246.78 18.656L246.78 119.876C254.768 120.142 262.783 120.143 270.78 119.876L270.78 18.655L246.78 18.655Z" class="" fill="#8b572a" fill-opacity="1"></path><path d="M174.625 129.062L174.625 159.875L342.938 159.875L342.938 129.062C287.183 141.792 229.834 141.666 174.625 129.062Z" class="" fill="#4a4a4a" fill-opacity="1"></path><path d="M24.345 164.125L33.688 201.719L165.875 209.812L175.281 210.374L174.626 219.78C172.032 257.857 179.883 298.453 200.189 332.22L207.814 185.75L24.344 164.125Z" class="" fill="#000000" fill-opacity="1"></path><path d="M487.531 164.125L309.689 185.095L316.876 322.938C333.333 291.163 339.612 254.435 337.251 219.781L336.626 210.376L346.001 209.813L478.189 201.72L487.532 164.125Z" class="" fill="#000000" fill-opacity="1"></path><path d="M226.907 178.563L216.25 383.188L216.25 427.375L260.625 493.905L303.655 428.563L290.655 178.563L268.125 178.563L268.125 429.5L249.437 429.5L249.437 178.562L226.907 178.562Z" class="" fill="#fff" fill-opacity="1"></path><path d="M38.186 220.72C41.706 231.954 46.229 243.746 51.531 255.656L156.031 247.094C155.673 240.674 155.579 234.259 155.751 227.906L38.187 220.72Z" class="" fill="#000000" fill-opacity="1"></path><path d="M473.688 220.72L356.125 227.906C356.297 234.259 356.202 240.674 355.845 247.094L460.345 255.656C465.645 243.746 470.17 231.954 473.687 220.719Z" class="" fill="#000000" fill-opacity="1"></path><path d="M157.844 265.72L60.124 273.72C65.57 284.497 71.55 295.192 77.906 305.53L161.969 287.25C160.234 280.133 158.849 272.928 157.843 265.72Z" class="" fill="#000000" fill-opacity="1"></path><path d="M354.031 265.72C353.028 272.927 351.671 280.134 349.939 287.25L433.969 305.53C440.326 295.192 446.307 284.497 451.751 273.72L354.031 265.72Z" class="" fill="#000000" fill-opacity="1"></path><path d="M167.19 305.25L88.75 322.313C95.444 332.113 102.42 341.363 109.5 349.781L174.438 323.439C171.713 317.484 169.295 311.416 167.188 305.251Z" class="" fill="#000000" fill-opacity="1"></path><path d="M344.69 305.25C342.583 311.416 340.163 317.482 337.44 323.438L402.377 349.781C409.457 341.366 416.433 332.115 423.127 322.314L344.689 305.251Z" class="selected" fill="#000000" fill-opacity="1"></path></g></g></svg>